<svg xmlns="http://www.w3.org/2000/svg" width="80" height="80" viewBox="0 0 80 80"><defs><linearGradient id="phoneBg" x1="0" y1="0" x2="0" y2="1"><stop offset="0" stop-color="#5DDB6B"/><stop offset="1" stop-color="#27B43B"/></linearGradient></defs><rect width="80" height="80" rx="18" fill="url(#phoneBg)"/><path d="M58.6 50.9c-1.3-.7-7.6-3.7-8.7-4.1-1.2-.4-2-.7-2.9.7-.8 1.3-3.3 4.1-4 4.9-.7.9-1.5 1-2.7.4-1.3-.7-5.4-2-10.3-6.4-3.8-3.4-6.4-7.6-7.1-8.9-.7-1.3-.1-2 .6-2.6.6-.6 1.3-1.5 1.9-2.3.6-.8.9-1.3 1.3-2.2.4-.9.2-1.7-.1-2.4-.3-.7-2.9-7-4-9.5-1.1-2.5-2.1-2.2-2.9-2.2-.7 0-1.6-.1-2.4-.1-.9 0-2.2.3-3.4 1.6-1.2 1.3-4.4 4.3-4.4 10.5 0 6.2 4.5 12.2 5.2 13.1.6.9 8.9 13.7 21.6 19.2 3 1.3 5.4 2.1 7.2 2.7 3 .9 5.8.8 8 .5 2.4-.4 7.6-3.1 8.6-6 1.1-3 1.1-5.6.7-6.1-.3-.4-1.1-.7-2.4-1.4z" fill="#fff"/></svg>