<svg xmlns="http://www.w3.org/2000/svg" viewBox="0 0 120 120" width="120" height="120" role="img" aria-label="YouTube">
  <rect width="120" height="120" fill="transparent"/>
  <g transform="translate(0, 7.5)">
    <path
      d="M99.37,30.43c-1.26-4.66-4.97-8.33-9.7-9.57C82.38,19,60,19,60,19s-22.38,0-29.67,1.86c-4.73,1.24-8.44,4.91-9.7,9.57C18.83,37.6,18.83,52.5,18.83,52.5s0,14.9,1.8,22.07c1.26,4.66,4.97,8.33,9.7,9.57C37.62,86,60,86,60,86s22.38,0,29.67-1.86c4.73-1.24,8.44-4.91,9.7-9.57,1.8-7.17,1.8-22.07,1.8-22.07s0-14.9-1.8-22.07Z"
      fill="#FF0000"
    />
    <polygon fill="#FFFFFF" points="50 38 50 67 75 52.5"/>
  </g>
</svg>
